<?xml version="1.0" encoding="UTF-8"?>
<svg version="1.1" xmlns="http://www.w3.org/2000/svg" width="512" height="512">
<path d="M0 0 C1.12631836 -0.04350586 1.12631836 -0.04350586 2.27539062 -0.08789062 C6.16611745 -0.13237563 8.15813871 0.07675268 11.59765625 2.08203125 C13.5625 4.3125 13.5625 4.3125 13.5625 8.3125 C20.4925 8.3125 27.4225 8.3125 34.5625 8.3125 C34.8925 6.6625 35.2225 5.0125 35.5625 3.3125 C37.64296335 1.18684364 38.9645065 0.40852547 41.90431577 -0.06354749 C42.77691578 -0.06403455 43.6495158 -0.06452161 44.54855824 -0.06502342 C46.06408117 -0.07675829 46.06408117 -0.07675829 47.61022073 -0.08873022 C48.71827858 -0.08203805 49.82633644 -0.07534589 50.9679718 -0.06845093 C52.73590986 -0.07547089 52.73590986 -0.07547089 54.53956383 -0.08263266 C57.81218063 -0.09254005 61.0844646 -0.08895841 64.35707319 -0.07967401 C67.88615862 -0.07289621 71.41519848 -0.08335857 74.9442749 -0.09161377 C81.85900647 -0.10496815 88.77364045 -0.10206544 95.68837587 -0.09337585 C101.3089385 -0.08660476 106.92947375 -0.08568009 112.55003929 -0.0889473 C113.34955567 -0.089407 114.14907205 -0.08986669 114.9728162 -0.09034032 C116.59698295 -0.09129949 118.22114969 -0.09227213 119.84531643 -0.0932581 C135.08372936 -0.10181741 150.32208819 -0.09197025 165.56049224 -0.075857 C178.63369839 -0.06246102 191.7068246 -0.06477491 204.7800293 -0.07861328 C219.9587122 -0.09467283 235.13734762 -0.10098526 250.31603783 -0.09177649 C251.93519635 -0.09082084 253.55435488 -0.08987773 255.17351341 -0.0889473 C255.97017634 -0.08848447 256.76683928 -0.08802164 257.58764351 -0.08754479 C263.19945025 -0.08495545 268.81122687 -0.08932485 274.42302895 -0.09638596 C281.26509525 -0.10480566 288.10705831 -0.10251127 294.94911281 -0.08654372 C298.43959986 -0.07866611 301.92991489 -0.07556049 305.42040062 -0.08549118 C309.20579836 -0.09367518 312.99071055 -0.08342205 316.77607727 -0.06845093 C317.87744296 -0.07514309 318.97880865 -0.08183526 320.11354905 -0.08873022 C328.37097114 -0.02528335 334.43255485 1.3528311 340.5625 7.3125 C343.53615959 12.11285426 343.99874805 16.25873613 343.96655273 21.77709961 C343.97684761 23.01975838 343.97684761 23.01975838 343.98735046 24.28752136 C344.00558277 27.01347212 344.0017861 29.73884537 343.99609375 32.46484375 C344.00065728 34.36764207 344.00596337 36.27043874 344.01197815 38.17323303 C344.02090226 42.15681666 344.0184941 46.14019974 344.00854492 50.1237793 C343.99705648 55.21925776 344.01726841 60.31404308 344.04646206 65.4094305 C344.06484113 69.3377774 344.06452818 73.26595872 344.05882454 77.19433784 C344.05867153 79.07254572 344.06469881 80.95076497 344.07711601 82.82893181 C344.09205652 85.45922739 344.08132701 88.08824911 344.06420898 90.71850586 C344.07387695 91.48807617 344.08354492 92.25764648 344.09350586 93.05053711 C344.0187379 98.5593626 342.67508838 101.75232211 339.5625 106.3125 C334.19891256 111.40103167 329.59374936 112.56790123 322.29296875 112.5078125 C321.61196609 112.5049826 320.93096344 112.50215271 320.22932434 112.49923706 C318.06936545 112.48810525 315.90983206 112.46301457 313.75 112.4375 C312.27930289 112.42746111 310.80859924 112.41833685 309.33789062 112.41015625 C305.74580075 112.3898963 302.15462268 112.35073667 298.5625 112.3125 C298.5625 116.9325 298.5625 121.5525 298.5625 126.3125 C299.59487289 126.30583817 300.62724579 126.29917633 301.69090271 126.29231262 C311.44486905 126.23135962 321.19879647 126.18645939 330.95291042 126.15706348 C335.96697905 126.14144244 340.98089327 126.12026946 345.99487305 126.08618164 C350.83836944 126.05346089 355.6817178 126.03562022 360.52531624 126.02786827 C362.36839183 126.02234753 364.21145981 126.01156706 366.05447197 125.99530983 C368.64643408 125.97336622 371.23779317 125.97054008 373.82983398 125.97192383 C374.95949081 125.95574509 374.95949081 125.95574509 376.11196899 125.9392395 C385.16340176 125.9911445 392.12508011 128.80645899 398.609375 135.109375 C404.1791299 141.39205852 404.91706818 147.33116888 405.0625 155.5 C405.08127197 156.27263184 405.10004395 157.04526367 405.11938477 157.84130859 C405.05999724 163.08664095 404.09915717 166.2092305 400.5625 170.3125 C397.51584066 172.47983896 394.99439777 172.53439205 391.3125 172.4375 C390.42046875 172.41945312 389.5284375 172.40140625 388.609375 172.3828125 C387.93390625 172.35960937 387.2584375 172.33640625 386.5625 172.3125 C386.80484375 173.25867188 387.0471875 174.20484375 387.296875 175.1796875 C387.45615479 175.8097168 387.61543457 176.43974609 387.77954102 177.08886719 C388.13916897 178.50497432 388.50437516 179.91967493 388.87475586 181.33300781 C389.89080801 185.29012721 390.73492742 189.19914711 391.33203125 193.2421875 C392.28286836 201.68706973 392.28286836 201.68706973 397.05078125 208.16015625 C399.87441088 209.10391338 402.65000355 209.71224674 405.5625 210.3125 C410.12722714 212.68354436 412.89353134 216.55509683 414.81640625 221.22265625 C416.55003064 228.40222114 416.41288129 235.9587405 416.5625 243.3125 C417.72007812 243.80878906 418.87765625 244.30507813 420.0703125 244.81640625 C421.60979414 245.50166332 423.14883352 246.18791455 424.6875 246.875 C425.82832031 247.35936523 425.82832031 247.35936523 426.9921875 247.85351562 C433.5241162 250.80977646 437.96894515 254.67008891 440.875 261.3125 C441.5625 264.3125 441.5625 264.3125 441.875 267.9375 C442.72626152 272.1164202 444.11169863 272.98320907 447.5625 275.3125 C449.06593913 278.31937826 448.76666325 281.43402293 448.80078125 284.734375 C448.808853 285.47198059 448.81692474 286.20958618 448.82524109 286.96954346 C448.83908051 288.53305716 448.84980331 290.09660106 448.85766602 291.66015625 C448.87483516 294.03965445 448.91871387 296.41774693 448.96289062 298.796875 C448.97302183 300.31769814 448.9815366 301.83853307 448.98828125 303.359375 C449.00578934 304.06584167 449.02329742 304.77230835 449.04133606 305.50018311 C449.01935636 310.56239821 447.74706297 313.41914483 444.5625 317.3125 C443.9025 317.6425 443.2425 317.9725 442.5625 318.3125 C442.43852853 322.77814301 442.34799008 327.24286439 442.2878418 331.7097168 C442.26275891 333.22779801 442.2286834 334.74575918 442.18530273 336.26342773 C442.12436707 338.45065965 442.09623105 340.63629039 442.07421875 342.82421875 C442.04803467 344.13865967 442.02185059 345.45310059 441.99487305 346.80737305 C442.70065064 351.16558763 444.26287534 352.50156722 447.5625 355.3125 C449.65973531 359.50697062 448.8713288 364.90962138 448.91259766 369.52392578 C448.92911388 370.87598943 448.95634766 372.22796732 448.99462891 373.57958984 C449.35124017 386.24704209 449.35124017 386.24704209 446.2890625 390.109375 C440.97772632 394.40105638 437.30101836 394.59040467 430.640625 394.5078125 C429.78063904 394.5049826 428.92065308 394.50215271 428.03460693 394.49923706 C425.29376179 394.4880615 422.55324602 394.46296179 419.8125 394.4375 C417.95182764 394.4274668 416.09115015 394.41834155 414.23046875 394.41015625 C409.67435268 394.38813076 405.11848214 394.35361897 400.5625 394.3125 C400.447854 394.96476562 400.33320801 395.61703125 400.21508789 396.2890625 C397.75842381 409.50170106 391.62980141 420.00159304 380.9609375 428.34765625 C368.34309896 436.91105964 353.67603704 440.15366482 338.6484375 437.6640625 C325.56420105 434.90791416 313.14687482 429.13245448 305.48339844 417.703125 C300.85387556 410.38013518 296.5625 403.20195563 296.5625 394.3125 C295.9722554 394.32360306 295.3820108 394.33470612 294.77388 394.34614563 C288.62585597 394.4568366 282.47811533 394.53220745 276.3293457 394.5871582 C274.03528342 394.61228928 271.7413011 394.64639969 269.44750977 394.68969727 C266.14839951 394.75040832 262.85034854 394.77872437 259.55078125 394.80078125 C258.01457878 394.83949089 258.01457878 394.83949089 256.44734192 394.87898254 C249.31667523 394.88178588 249.31667523 394.88178588 245.37573242 391.90698242 C243.5625 389.3125 243.5625 389.3125 243.5625 387.3125 C236.3025 387.3125 229.0425 387.3125 221.5625 387.3125 C220.9025 388.9625 220.2425 390.6125 219.5625 392.3125 C216.13320193 394.59869871 214.91731984 394.56022573 210.88679504 394.55300903 C209.70468948 394.55575836 208.52258392 394.55850769 207.30465698 394.56134033 C206.00633942 394.55414978 204.70802185 394.54695923 203.37036133 394.53955078 C201.9906261 394.53898669 200.61089027 394.53930319 199.2311554 394.54043579 C195.48346624 394.54101039 191.73590471 394.52923881 187.98824525 394.51528788 C184.07246689 394.50279833 180.15668571 394.50161142 176.2408905 394.49923706 C168.82485859 394.49301706 161.40888554 394.47659922 153.99287957 394.45653808 C145.55041542 394.43419524 137.10794848 394.42318972 128.66546214 394.41314721 C111.29777403 394.39223344 93.93014323 394.35704737 76.5625 394.3125 C76.26192436 395.55388985 76.26192436 395.55388985 75.95527649 396.82035828 C75.68942245 397.9040419 75.42356842 398.98772552 75.1496582 400.10424805 C74.88739944 401.17934128 74.62514069 402.25443451 74.35493469 403.36210632 C70.91786543 416.15900622 61.70858526 425.70792526 50.5625 432.3125 C35.29829484 438.99574658 20.58161242 440.29069254 4.5625 435.3125 C-8.2676039 430.0458667 -18.6275281 421.03996969 -24.4375 408.3125 C-25.96111722 404.02256526 -27.23644801 399.70147585 -28.4375 395.3125 C-29.57179443 395.29848145 -29.57179443 395.29848145 -30.72900391 395.28417969 C-34.17415134 395.230308 -37.61796562 395.14669159 -41.0625 395.0625 C-42.25230469 395.04832031 -43.44210938 395.03414063 -44.66796875 395.01953125 C-55.74354635 394.71015757 -55.74354635 394.71015757 -60.4375 390.3125 C-64.85785646 385.59167922 -63.92332878 380.08441635 -63.88354492 373.95019531 C-63.8750578 371.95111474 -63.90517192 369.95199281 -63.93554688 367.953125 C-63.93490234 366.68210937 -63.93425781 365.41109375 -63.93359375 364.1015625 C-63.93544678 362.94350098 -63.9372998 361.78543945 -63.93920898 360.59228516 C-63.32834655 356.5989392 -61.94205056 354.44907175 -59.4375 351.3125 C-56.4375 349.3125 -56.4375 349.3125 -53.4375 349.3125 C-53.4375 290.9025 -53.4375 232.4925 -53.4375 172.3125 C-55.4175 171.6525 -57.3975 170.9925 -59.4375 170.3125 C-62.67809137 167.4722488 -63.67328053 165.20415382 -64.00390625 161.01953125 C-64.03183671 159.38825941 -64.02932293 157.75624741 -64 156.125 C-63.98356445 154.85124512 -63.98356445 154.85124512 -63.96679688 153.55175781 C-63.65727502 144.57906322 -61.16406659 138.65726959 -54.6875 132.375 C-46.61633692 125.23377528 -36.01521866 125.90693515 -25.90234375 126.01953125 C-24.41305471 126.02513694 -22.92376008 126.02940243 -21.4344635 126.03239441 C-17.54310427 126.04376675 -13.65208899 126.07316672 -9.76086426 126.10650635 C-5.77877452 126.13737289 -1.7966284 126.15093493 2.18554688 126.16601562 C9.97803842 126.19804519 17.77017691 126.25074916 25.5625 126.3125 C25.5625 121.6925 25.5625 117.0725 25.5625 112.3125 C24.51384766 112.33868408 23.46519531 112.36486816 22.38476562 112.3918457 C18.46376195 112.48290431 14.54285013 112.53994908 10.62109375 112.5871582 C8.92952719 112.6121766 7.23806736 112.6462029 5.546875 112.68969727 C-11.81228418 113.12469978 -11.81228418 113.12469978 -18.4375 107.3125 C-23.23031869 102.64580811 -24.25394631 97.02190196 -24.69146729 90.56373596 C-24.69305847 89.27627975 -24.69464966 87.98882355 -24.69628906 86.66235352 C-24.6997937 85.94412415 -24.70329834 85.22589478 -24.70690918 84.48590088 C-24.71563232 82.13763443 -24.7099104 79.78967518 -24.703125 77.44140625 C-24.70447451 75.7928817 -24.70641742 74.14435755 -24.70892334 72.49583435 C-24.71186198 69.05048817 -24.70761822 65.60524612 -24.69824219 62.15991211 C-24.68685741 57.76437096 -24.69340895 53.36907437 -24.70538712 48.97354221 C-24.71264753 45.57185557 -24.71029852 42.17022597 -24.70513153 38.76853752 C-24.70380611 37.14877226 -24.70540352 35.52900166 -24.71009064 33.90924263 C-24.75746629 12.93646604 -24.75746629 12.93646604 -20.125 6.9375 C-13.88746288 0.84502188 -8.45937582 0.10836092 0 0 Z M71.5625 112.3125 C71.5625 116.9325 71.5625 121.5525 71.5625 126.3125 C131.2925 126.3125 191.0225 126.3125 252.5625 126.3125 C252.5625 121.6925 252.5625 117.0725 252.5625 112.3125 C192.8325 112.3125 133.1025 112.3125 71.5625 112.3125 Z " fill="#030302" transform="translate(63.4375,36.6875)"/>
<path d="M0 0 C1.46469727 0.01933594 1.46469727 0.01933594 2.95898438 0.0390625 C3.96638672 0.07257813 4.97378906 0.10609375 6.01171875 0.140625 C7.55182617 0.16769531 7.55182617 0.16769531 9.12304688 0.1953125 C11.6493976 0.24231437 14.17382344 0.30800228 16.69921875 0.390625 C16.70286438 1.16212891 16.70651001 1.93363281 16.71026611 2.72851562 C16.74824892 10.02550979 16.80521697 17.32199919 16.88312149 24.6186676 C16.92250713 28.36933047 16.95473878 32.1197617 16.97021484 35.87060547 C16.98544094 39.49542454 17.01998969 43.11960643 17.06752777 46.74414062 C17.08228074 48.12185097 17.09025625 49.49965233 17.0911026 50.87744141 C17.10184269 59.60038569 17.16616701 66.37331938 23.16659069 73.01475239 C31.29833372 79.76598339 42.01684093 78.22115875 51.97290039 78.15112305 C54.14842097 78.15762106 56.32393517 78.16668551 58.49943542 78.17811584 C64.39203721 78.20115165 70.28398944 78.18650448 76.17657018 78.16364646 C82.34944763 78.14470159 88.52228229 78.15589324 94.69517517 78.16255188 C105.05933932 78.16888794 115.42324385 78.15064475 125.78735352 78.11791992 C137.76354424 78.08041724 149.73899446 78.08220981 161.71522623 78.1049611 C173.24562655 78.12592012 184.77584549 78.11863099 196.30624199 78.09864235 C201.2092044 78.09066333 206.11201309 78.09263955 211.01497078 78.10266685 C216.7894938 78.11322848 222.56344483 78.09906022 228.33787727 78.06592369 C230.45502162 78.05772581 232.57221846 78.05798947 234.68935776 78.06740189 C237.58346445 78.07885405 240.47580031 78.05940989 243.36976624 78.03227234 C244.6212893 78.04797957 244.6212893 78.04797957 245.89809567 78.06400412 C251.92736055 77.95894723 256.03019315 76.22437055 260.69921875 72.390625 C265.17790733 66.85119439 266.92701814 61.36487212 267.01806641 54.29345703 C267.0379361 53.11268585 267.05780579 51.93191467 267.07827759 50.71536255 C267.0898288 49.45577728 267.10138 48.19619202 267.11328125 46.8984375 C267.1326474 45.59736053 267.15201355 44.29628357 267.17196655 42.95578003 C267.22309814 39.51341736 267.26282463 36.07101578 267.30010986 32.628479 C267.34026922 29.10899417 267.39120253 25.58966602 267.44140625 22.0703125 C267.53895109 15.17714415 267.61861817 8.28409559 267.69921875 1.390625 C280.23921875 1.390625 292.77921875 1.390625 305.69921875 1.390625 C305.73660156 5.556875 305.77398437 9.723125 305.8125 14.015625 C305.8506541 17.3549254 305.89172649 20.69416179 305.93476105 24.03340149 C305.97927015 27.54877513 306.01873564 31.06403376 306.0456543 34.57958984 C306.07683841 38.62105989 306.1316212 42.66192037 306.1875 46.703125 C306.19708488 48.57701904 306.19708488 48.57701904 306.2068634 50.48876953 C306.36894851 60.15631519 307.68086374 67.37226999 314.69921875 74.390625 C319.31881366 77.22140288 323.22979126 77.83376596 328.54052734 77.82299805 C329.68300934 77.83828552 329.68300934 77.83828552 330.84857178 77.85388184 C333.34834246 77.88390528 335.84772928 77.89326123 338.34765625 77.90234375 C340.08787295 77.91919838 341.82807754 77.93734967 343.56826782 77.95674133 C348.13515436 78.00416248 352.70199175 78.03402275 357.26904297 78.06018066 C361.934669 78.09002605 366.60012588 78.1365427 371.265625 78.18164062 C380.41006762 78.26758397 389.55454513 78.33496908 398.69921875 78.390625 C399.13867188 80.39461263 399.578125 82.39860026 400.01757812 84.40258789 C401.29394722 88.1251787 404.33864336 89.71033731 407.69921875 91.390625 C410.89988799 91.70948108 414.10961824 91.71503758 417.32421875 91.765625 C418.20207031 91.80300781 419.07992188 91.84039062 419.984375 91.87890625 C425.85623239 91.95743035 429.27284586 91.01905478 433.92333984 87.37353516 C435.69921875 86.390625 435.69921875 86.390625 437.70849609 86.63793945 C440.90149075 87.8452 443.91652195 89.39671048 446.94921875 90.953125 C447.59890625 91.28248047 448.24859375 91.61183594 448.91796875 91.95117188 C450.51356169 92.76070065 452.10664358 93.57517542 453.69921875 94.390625 C453.69921875 96.370625 453.69921875 98.350625 453.69921875 100.390625 C453.07015625 100.45378906 452.44109375 100.51695312 451.79296875 100.58203125 C444.67449965 101.60048692 440.39157714 103.92183321 435.69921875 109.390625 C431.55573211 115.73533891 431.85491355 123.02139806 432.69921875 130.390625 C434.63744956 137.38511009 438.18415165 141.45640921 444.22265625 145.33203125 C447.33850768 146.79034949 447.33850768 146.79034949 453.69921875 147.390625 C453.69921875 157.620625 453.69921875 167.850625 453.69921875 178.390625 C448.164004 178.57521762 442.63961127 178.73409457 437.10375977 178.83007812 C435.22480954 178.8701073 433.34610533 178.92455143 431.46801758 178.99414062 C413.83507341 179.6307428 413.83507341 179.6307428 408.37109375 174.57421875 C407.73373291 173.8476709 407.09637207 173.12112305 406.43969727 172.37255859 C403.79188712 169.35742004 401.09912171 168.41083161 397.38671875 166.953125 C396.21496094 166.48003906 395.04320312 166.00695312 393.8359375 165.51953125 C382.3166731 161.37374369 367.35312803 162.03675967 356.16015625 166.94140625 C346.55052428 171.0488055 346.55052428 171.0488055 339.69921875 178.390625 C307.98693503 178.55035626 276.27476588 178.67421464 244.56217381 178.74808231 C240.81716469 178.75683712 237.07215637 178.76589739 233.32714844 178.77514648 C232.58159323 178.77698266 231.83603802 178.77881883 231.06789023 178.78071065 C219.00016575 178.81115958 206.932675 178.86634573 194.86508912 178.93069457 C182.48012916 178.99618436 170.0952915 179.03504256 157.7101655 179.04924446 C150.06938575 179.0588435 142.42926663 179.0891458 134.78869027 179.14604027 C128.92721139 179.18746027 123.0660705 179.19180403 117.20444107 179.18237877 C114.80182454 179.18430463 112.39918301 179.19823031 109.99671555 179.22506332 C106.71429978 179.25992632 103.43470352 179.25150946 100.15222168 179.23240662 C99.20278734 179.25279651 98.25335299 179.2731864 97.27514791 179.29419416 C89.94156581 179.1789334 86.72304542 176.48605284 81.69921875 171.390625 C79.16321675 169.71715803 79.16321675 169.71715803 76.76171875 168.640625 C75.63443359 168.09148437 75.63443359 168.09148437 74.484375 167.53125 C66.87584212 164.415273 60.52878885 162.90676819 52.26171875 163.015625 C51.38451172 163.00402344 50.50730469 162.99242187 49.60351562 162.98046875 C41.30912837 163.01714253 33.60766928 164.76968259 26.51171875 169.203125 C25.75503906 169.66332031 24.99835937 170.12351562 24.21875 170.59765625 C21.77440007 172.19834563 21.77440007 172.19834563 20.37675476 173.86503601 C16.68717083 177.76684432 13.92474371 178.81423057 8.546875 178.9765625 C6.2844097 178.93698585 4.02230873 178.86586719 1.76171875 178.765625 C0.60091797 178.73855469 -0.55988281 178.71148437 -1.75585938 178.68359375 C-4.606104 178.61321734 -7.45245844 178.51481124 -10.30078125 178.390625 C-10.4175076 155.77298852 -10.50571699 133.1554016 -10.55984211 110.53752518 C-10.58563972 100.03598216 -10.62082001 89.53462613 -10.67797852 79.03320312 C-10.72776579 69.88170523 -10.76006093 60.73034274 -10.77122372 51.57871318 C-10.77775041 46.73151693 -10.79312222 41.88470807 -10.82943153 37.0376358 C-10.86331719 32.47724823 -10.87384931 27.91740839 -10.86631966 23.35690689 C-10.86769754 21.6814972 -10.87767447 20.00606958 -10.89680862 18.33076859 C-10.9216323 16.04562099 -10.91572783 13.76255005 -10.90205383 11.47735596 C-10.9066628 10.1979073 -10.91127176 8.91845863 -10.91602039 7.6002388 C-10.30078125 4.390625 -10.30078125 4.390625 -7.9248991 1.97608566 C-4.97008906 0.19082473 -3.41868456 -0.07996923 0 0 Z " fill="#FCE387" transform="translate(35.30078125,207.609375)"/>
<path d="M0 0 C1.07248766 -0.00307895 1.07248766 -0.00307895 2.16664174 -0.0062201 C4.58687888 -0.01192028 7.00705965 -0.01042916 9.42730236 -0.00901413 C11.17025623 -0.01159604 12.91320951 -0.01460871 14.65616196 -0.01801753 C19.46485888 -0.02611126 24.27354088 -0.02787842 29.0822438 -0.028615 C34.26095252 -0.03046144 39.43965343 -0.03800668 44.61835766 -0.04475021 C55.9508571 -0.0583508 67.28335302 -0.06436091 78.61585927 -0.06876087 C85.68716491 -0.07152033 92.75846919 -0.07575713 99.8297739 -0.08026505 C119.39450813 -0.09245986 138.95924124 -0.10275882 158.52397919 -0.10614014 C159.77695069 -0.1063597 161.0299222 -0.10657927 162.32086254 -0.10680549 C163.57689205 -0.10702377 164.83292155 -0.10724204 166.12701255 -0.10746694 C168.67235553 -0.10791041 171.21769852 -0.10835697 173.7630415 -0.10880661 C175.02562899 -0.10902804 176.28821648 -0.10924947 177.5890642 -0.10947761 C198.05536516 -0.11342706 218.52163055 -0.13088461 238.98791776 -0.15416613 C259.98250703 -0.17785656 280.97707844 -0.19034093 301.9716813 -0.19150805 C313.76658323 -0.19242611 325.56143881 -0.19821108 337.35632801 -0.21632767 C347.3985905 -0.23169752 357.44079232 -0.23686758 367.48306433 -0.22858956 C372.60969295 -0.22467201 377.73619928 -0.22566634 382.862813 -0.23964691 C387.55265512 -0.25231978 392.24228226 -0.2512469 396.9321238 -0.2390562 C398.63200918 -0.23708767 400.33190944 -0.24023052 402.03177384 -0.24890056 C404.33675393 -0.25991597 406.64096488 -0.2525605 408.94592285 -0.24050903 C410.2279137 -0.24110612 411.50990455 -0.24170321 412.83074361 -0.24231839 C417.46258683 0.27738868 420.06855755 1.77439462 422.97422314 5.38142776 C424.16172314 8.13142776 424.16172314 8.13142776 424.16172314 15.13142776 C279.62172314 15.13142776 135.08172314 15.13142776 -13.83827686 15.13142776 C-13.83827686 6.1169769 -13.83827686 6.1169769 -11.46327686 3.69392776 C-7.48037604 -0.19414209 -5.48994074 0.00533997 0 0 Z " fill="#F2ECEA" transform="translate(28.838276863098145,178.86857223510742)"/>
<path d="M0 0 C9.85723081 -0.11575743 19.71430043 -0.20464577 29.57207203 -0.25906086 C34.14928474 -0.28517521 38.7260331 -0.32060617 43.30297852 -0.37719727 C47.71854412 -0.43145246 52.1336626 -0.46140668 56.54953575 -0.47438622 C58.23573537 -0.48363788 59.92191001 -0.50170429 61.60791969 -0.52865028 C63.96677492 -0.56485657 66.32377377 -0.56994922 68.68286133 -0.56762695 C69.38273163 -0.58560333 70.08260193 -0.60357971 70.80368042 -0.62210083 C72.75398254 -0.60127258 72.75398254 -0.60127258 76 0 C78.91825697 3.58579092 79.70152449 7.23990858 80.60546875 11.7265625 C80.86650391 13.0053125 81.12753906 14.2840625 81.39648438 15.6015625 C81.52627686 16.26188477 81.65606934 16.92220703 81.78979492 17.60253906 C82.18803772 19.62773448 82.59960998 21.64986051 83.01367188 23.671875 C85 33.52884164 85 33.52884164 85 37 C84.236875 37.433125 83.47375 37.86625 82.6875 38.3125 C79.21979748 40.48989461 78.5242393 42.21105288 77 46 C76.53589875 48.78974513 76.40186636 51.55102316 76.3125 54.375 C76.27833984 55.11105469 76.24417969 55.84710938 76.20898438 56.60546875 C76.12727211 58.40313853 76.06194219 60.20154046 76 62 C66.38615582 62.04627741 56.77234979 62.08184573 47.15841866 62.10362434 C42.69460245 62.11407534 38.23086228 62.12825844 33.76708984 62.15087891 C29.46179326 62.17256052 25.15656995 62.1845587 20.85122299 62.18975449 C19.20612306 62.19345869 17.56102727 62.20069177 15.9159584 62.21146011 C13.61722296 62.22591299 11.31879287 62.22798058 9.02001953 62.22705078 C7.7098587 62.231492 6.39969788 62.23593323 5.04983521 62.24050903 C2 62 2 62 0 60 C-0.24050903 57.48165894 -0.24050903 57.48165894 -0.22705078 54.26513672 C-0.22689972 53.06404266 -0.22674866 51.86294861 -0.22659302 50.62545776 C-0.21627045 49.32335358 -0.20594788 48.02124939 -0.1953125 46.6796875 C-0.19158276 45.33733327 -0.18873561 43.99497633 -0.18673706 42.65261841 C-0.17909744 39.117986 -0.1594463 35.58351772 -0.1373291 32.0489502 C-0.11687765 28.4428123 -0.10773685 24.83664791 -0.09765625 21.23046875 C-0.0762006 14.15357865 -0.04206079 7.07680003 0 0 Z " fill="#D3F1F5" transform="translate(357,209)"/>
<path d="M0 0 C23.76 0 47.52 0 72 0 C72 20.46 72 40.92 72 62 C48.24 62 24.48 62 0 62 C0 41.54 0 21.08 0 0 Z " fill="#D4F2F6" transform="translate(139,209)"/>
<path d="M0 0 C9.25965891 5.71141987 15.00260185 13.25640617 18.21484375 23.609375 C20.24557696 33.89466267 18.65847721 43.61562382 13.63671875 52.74609375 C6.59444026 62.71697935 -2.44949866 68.3522889 -14.36328125 70.74609375 C-24.00284842 72.01486503 -33.3553947 69.27758391 -41.17578125 63.55859375 C-49.59166693 56.37764782 -55.29292786 47.96684914 -56.7421875 36.8359375 C-57.15766942 26.66333172 -54.64054125 16.3203202 -47.9765625 8.44921875 C-47.44417969 7.8871875 -46.91179688 7.32515625 -46.36328125 6.74609375 C-45.86183594 6.2046875 -45.36039063 5.66328125 -44.84375 5.10546875 C-32.87135308 -6.42997938 -14.36532115 -7.62193073 0 0 Z " fill="#8E7F8E" transform="translate(106.36328125,389.25390625)"/>
<path d="M0 0 C7.54815172 5.77119101 11.86867709 12.41462502 14.875 21.43359375 C15.70698758 34.09071625 15.05595978 45.33472117 6.69921875 55.5859375 C-1.90101836 64.29667016 -10.96509812 67.68904585 -22.9375 67.99609375 C-31.17865092 67.99694047 -37.24285323 66.13729721 -44.125 61.43359375 C-44.80949219 60.97726562 -45.49398438 60.5209375 -46.19921875 60.05078125 C-51.24982377 56.21626551 -54.26770141 51.01549905 -57.125 45.43359375 C-57.50269531 44.69625 -57.88039063 43.95890625 -58.26953125 43.19921875 C-60.98804189 34.41060901 -60.54471719 21.79388279 -56.4453125 13.56640625 C-50.61500574 4.1482184 -43.58173775 -2.90253922 -32.703125 -6.09765625 C-21.11335139 -8.20488782 -9.79139541 -6.65262148 0 0 Z " fill="#8E7F8E" transform="translate(434.125,391.56640625)"/>
<path d="M0 0 C19.8 0 39.6 0 60 0 C60.061875 9.85875 60.12375 19.7175 60.1875 29.875 C60.22846802 34.5463208 60.22846802 34.5463208 60.27026367 39.31201172 C60.27902174 41.76789969 60.28666727 44.223792 60.29296875 46.6796875 C60.30831665 47.96496338 60.32366455 49.25023926 60.33947754 50.57446289 C60.33984009 51.79238525 60.34020264 53.01030762 60.34057617 54.26513672 C60.34723801 55.32658905 60.35389984 56.38804138 60.36076355 57.48165894 C60.18218559 58.72823776 60.18218559 58.72823776 60 60 C56.59317436 62.27121709 55.42202816 62.24468887 51.42700195 62.22705078 C50.27010864 62.22680908 49.11321533 62.22656738 47.92126465 62.22631836 C46.09818787 62.21097046 46.09818787 62.21097046 44.23828125 62.1953125 C43.12078491 62.19329834 42.00328857 62.19128418 40.85192871 62.18920898 C36.67207747 62.17873423 32.49228467 62.15081172 28.3125 62.125 C14.2978125 62.063125 14.2978125 62.063125 0 62 C0 41.54 0 21.08 0 0 Z " fill="#D3F1F5" transform="translate(227,209)"/>
<path d="M0 0 C75.24 0 150.48 0 228 0 C226.68 4.95 225.36 9.9 224 15 C222.52611816 15.01981934 221.05223633 15.03963867 219.53369141 15.06005859 C214.08055132 15.13596336 208.62768338 15.22470363 203.17480469 15.31738281 C200.81190349 15.35573527 198.44894266 15.39057692 196.0859375 15.421875 C192.6950952 15.46738966 189.30466576 15.52540619 185.9140625 15.5859375 C184.32182358 15.60326431 184.32182358 15.60326431 182.69741821 15.62094116 C181.22611954 15.6507457 181.22611954 15.6507457 179.72509766 15.68115234 C178.42603989 15.70113785 178.42603989 15.70113785 177.10073853 15.7215271 C174.78242358 15.81220713 174.78242358 15.81220713 173 18 C172.34 19.65 171.68 21.3 171 23 C163.74 23 156.48 23 149 23 C148.01 21.02 147.02 19.04 146 17 C143.36754081 15.68377041 141.39378737 15.86024733 138.44454956 15.84178162 C137.26381866 15.8319928 136.08308777 15.82220398 134.86657715 15.81211853 C133.56466431 15.80636307 132.26275146 15.8006076 130.92138672 15.79467773 C129.54179591 15.78510144 128.16220805 15.77509151 126.78262329 15.76467896 C123.0308141 15.73759679 119.27899228 15.7166052 115.52713919 15.69667697 C111.60865562 15.67483781 107.69021111 15.64743901 103.77175903 15.62062073 C96.34866024 15.5706658 88.9255398 15.52573738 81.50239861 15.48259836 C73.05266864 15.43324989 64.60297784 15.37832291 56.15328574 15.32291877 C38.76889336 15.20905575 21.38446463 15.10222614 4 15 C2.54567381 10.01373877 1.26284636 5.05138543 0 0 Z " fill="#F4EEEC" transform="translate(136,401)"/>
<path d="M0 0 C18.48 0 36.96 0 56 0 C56 20.46 56 40.92 56 62 C47.13125 62.04125 38.2625 62.0825 29.125 62.125 C26.32402832 62.14320801 23.52305664 62.16141602 20.63720703 62.18017578 C18.42741081 62.18601471 16.21761244 62.19111168 14.0078125 62.1953125 C12.8520874 62.20554443 11.6963623 62.21577637 10.50561523 62.22631836 C9.40950928 62.22656006 8.31340332 62.22680176 7.18408203 62.22705078 C6.22921906 62.231492 5.27435608 62.23593323 4.29055786 62.24050903 C2 62 2 62 0 60 C-0.24050903 57.48165894 -0.24050903 57.48165894 -0.22705078 54.26513672 C-0.22689972 53.06404266 -0.22674866 51.86294861 -0.22659302 50.62545776 C-0.21627045 49.32335358 -0.20594788 48.02124939 -0.1953125 46.6796875 C-0.19158276 45.33733327 -0.18873561 43.99497633 -0.18673706 42.65261841 C-0.17909744 39.117986 -0.1594463 35.58351772 -0.1373291 32.0489502 C-0.11687765 28.44281271 -0.10762735 24.83664794 -0.09765625 21.23046875 C-0.07726153 14.15350083 -0.03811661 7.07698374 0 0 Z " fill="#D3F1F5" transform="translate(67,209)"/>
<path d="M0 0 C31.68 0 63.36 0 96 0 C96 10.89 96 21.78 96 33 C64.32 33 32.64 33 0 33 C0 22.11 0 11.22 0 0 Z " fill="#A498A4" transform="translate(177,101)"/>
<path d="M0 0 C31.68 0 63.36 0 96 0 C96 10.89 96 21.78 96 33 C64.32 33 32.64 33 0 33 C0 22.11 0 11.22 0 0 Z " fill="#FB7A7F" transform="translate(177,53)"/>
<path d="M0 0 C1.19569107 -0.0038269 2.39138214 -0.00765381 3.62330627 -0.01159668 C6.14739831 -0.01431396 8.6715186 -0.00696584 11.19555664 0.00976562 C15.04963303 0.0311569 18.90184117 0.00996511 22.75585938 -0.015625 C25.21224368 -0.01298133 27.66862683 -0.00785553 30.125 0 C31.84715981 -0.01214539 31.84715981 -0.01214539 33.60411072 -0.02453613 C40.16347072 0.05195394 44.31030031 0.58633889 49.62890625 4.53125 C53.22416258 8.69379063 53.17202245 12.95529925 53.12890625 18.21875 C53.12318604 19.02022461 53.11746582 19.82169922 53.11157227 20.64746094 C52.88373287 28.22369621 51.08761955 33.70253482 45.94921875 39.390625 C39.90697098 45.03005625 33.59456386 45.8498495 25.609375 45.90234375 C24.75136795 45.91137222 23.8933609 45.9204007 23.00935364 45.92970276 C21.19987451 45.94416001 19.39034364 45.9530807 17.58081055 45.95678711 C14.83486353 45.96867013 12.09117588 46.0178866 9.34570312 46.06835938 C-1.05405595 46.16564869 -8.64480975 46.00443858 -16.4921875 38.50390625 C-16.92660156 37.87355469 -17.36101562 37.24320312 -17.80859375 36.59375 C-18.26105469 35.96597656 -18.71351563 35.33820313 -19.1796875 34.69140625 C-22.07486599 29.44211541 -22.73497129 24.44839616 -22.74609375 18.53125 C-22.78283203 17.50257813 -22.78283203 17.50257813 -22.8203125 16.453125 C-22.8498488 11.29411868 -21.70263535 8.42727207 -18.37109375 4.53125 C-12.79050956 -0.49661357 -7.25891976 -0.05110282 0 0 Z " fill="#040302" transform="translate(375.37109375,298.46875)"/>
<path d="M0 0 C3.41602015 -0.17446934 6.83089637 -0.28089623 10.25 -0.375 C11.21808594 -0.42527344 12.18617187 -0.47554687 13.18359375 -0.52734375 C15.9128451 -0.58381102 18.32911931 -0.57265686 21 0 C23.546875 2.9609375 23.546875 2.9609375 25 6 C27.79120091 7.39560045 30.20205692 7.21808288 33.3203125 7.31640625 C34.45227051 7.35451416 35.58422852 7.39262207 36.75048828 7.43188477 C38.19407715 7.47498779 39.63766602 7.51809082 41.125 7.5625 C47.993125 7.7790625 47.993125 7.7790625 55 8 C55 18.89 55 29.78 55 41 C29.59 41 4.18 41 -22 41 C-22 9 -22 9 -21 8 C-17.87772345 7.76272205 -14.76319706 7.60446344 -11.63476562 7.48242188 C-6.46919572 7.28067406 -6.46919572 7.28067406 -2 5 C-0.71745356 2.46229997 -0.71745356 2.46229997 0 0 Z " fill="#FB7A7F" transform="translate(77,45)"/>
<path d="M0 0 C25.41 0 50.82 0 77 0 C77 10.89 77 21.78 77 33 C58.36277326 33.08021762 58.36277326 33.08021762 50.4375 33.09765625 C45.02307227 33.10962636 39.60871197 33.12380886 34.19433594 33.15087891 C29.83068476 33.17255993 25.46710587 33.18455858 21.103405 33.18975449 C19.43597653 33.19345879 17.76855215 33.20069207 16.10115433 33.21146011 C13.77128705 33.2259122 11.44172106 33.22798061 9.11181641 33.22705078 C8.07064415 33.23783661 8.07064415 33.23783661 7.00843811 33.24884033 C2.22810432 33.22810432 2.22810432 33.22810432 0 31 C0 20.77 0 10.54 0 0 Z " fill="#A498A4" transform="translate(55,101)"/>
<path d="M0 0 C18.42776962 -0.04010881 18.42776962 -0.04010881 26.25585938 -0.04882812 C31.60669948 -0.05481629 36.95752255 -0.06191588 42.30834961 -0.07543945 C46.62011973 -0.08626929 50.93187159 -0.09227704 55.24365425 -0.09487724 C56.89236298 -0.09673132 58.54107066 -0.1003516 60.18977165 -0.10573006 C62.49103872 -0.11294178 64.7922294 -0.11399089 67.09350586 -0.11352539 C69.06207802 -0.11685631 69.06207802 -0.11685631 71.07041931 -0.12025452 C74 0 74 0 75 1 C75 11.56 75 22.12 75 33 C50.25 33 25.5 33 0 33 C0 22.11 0 11.22 0 0 Z " fill="#FF7C81" transform="translate(317,53)"/>
<path d="M0 0 C24.75 0 49.5 0 75 0 C75 10.23 75 20.46 75 31 C73 33 73 33 69.98812866 33.24050903 C68.04953476 33.2338472 68.04953476 33.2338472 66.07177734 33.22705078 C65.00332329 33.22748886 65.00332329 33.22748886 63.9132843 33.22793579 C61.55404566 33.22654016 59.19512111 33.21096827 56.8359375 33.1953125 C55.20211968 33.19158319 53.56829962 33.18873583 51.93447876 33.18673706 C47.63047124 33.1790941 43.32659832 33.15943999 39.02264404 33.1373291 C33.86064434 33.11329157 28.69859969 33.10409284 23.53656006 33.09242249 C15.69094638 33.0730159 7.84562812 33.03469811 0 33 C0 22.11 0 11.22 0 0 Z " fill="#A79BA7" transform="translate(317,101)"/>
<path d="M0 0 C5.82487858 3.26418317 8.71069283 8.23388566 11.625 14.0625 C12.47877401 21.34057352 11.36049316 27.72745312 7.625 34.0625 C3.39823344 38.9102607 -1.19202987 41.70123099 -7.64453125 42.43359375 C-15.2457497 42.57606422 -20.6373075 42.33536678 -26.375 37.0625 C-31.08859771 32.22150776 -33.4973857 26.94216455 -33.875 20.25 C-33.63088785 13.56742988 -31.21875984 7.7900751 -26.3671875 3.13671875 C-18.50440858 -2.9417026 -9.24193283 -4.08103559 0 0 Z " fill="#030202" transform="translate(98.375,401.9375)"/>
<path d="M0 0 C5.77671795 3.35049641 11.09714316 7.19647544 13.125 13.8125 C14.07073659 21.23697413 14.2803827 28.04748949 9.6171875 34.19921875 C5.13176955 39.04863659 0.77113712 42.46112008 -5.99609375 43.11328125 C-17.10352838 43.15253014 -17.10352838 43.15253014 -21.875 39.8125 C-22.761875 39.19375 -23.64875 38.575 -24.5625 37.9375 C-29.01436223 33.84659957 -30.60283354 29.75189777 -31.1484375 23.859375 C-31.37700059 16.43986548 -30.96247322 11.4180188 -25.875 5.8125 C-18.74307417 -1.30118561 -9.71514132 -3.82520106 0 0 Z " fill="#020202" transform="translate(420.875,401.1875)"/>
<path d="M0 0 C7.26 0 14.52 0 22 0 C22 20.46 22 40.92 22 62 C14.74 62 7.48 62 0 62 C0 41.54 0 21.08 0 0 Z " fill="#A6E7F0" transform="translate(189,209)"/>
<path d="M0 0 C7.26 0 14.52 0 22 0 C22 20.46 22 40.92 22 62 C14.74 62 7.48 62 0 62 C0 41.54 0 21.08 0 0 Z " fill="#A6E7F0" transform="translate(101,209)"/>
<path d="M0 0 C7.26 0 14.52 0 22 0 C22.06771072 7.78846942 22.12277814 15.57677875 22.15543652 23.36546135 C22.17110901 26.9818704 22.19237553 30.59806808 22.22631836 34.21435547 C22.25885631 37.70269988 22.27684108 41.19084068 22.28463173 44.6793251 C22.29289269 46.66143769 22.31632087 48.64346809 22.33988953 50.62545776 C22.34011612 51.82655182 22.34034271 53.02764587 22.34057617 54.26513672 C22.34723801 55.32658905 22.35389984 56.38804138 22.36076355 57.48165894 C22.18218559 58.72823776 22.18218559 58.72823776 22 60 C19 62 19 62 -1 62 C-0.67 41.54 -0.34 21.08 0 0 Z " fill="#A5E6EF" transform="translate(265,209)"/>
<path d="M0 0 C3.43705705 -0.14505175 6.87333033 -0.23398014 10.3125 -0.3125 C11.28896484 -0.35439453 12.26542969 -0.39628906 13.27148438 -0.43945312 C14.20927734 -0.45556641 15.14707031 -0.47167969 16.11328125 -0.48828125 C17.40939331 -0.52755737 17.40939331 -0.52755737 18.73168945 -0.56762695 C21 0 21 0 22.70507812 2.11010742 C24.14137994 5.3155193 24.91165034 8.28285114 25.60546875 11.7265625 C25.99702148 13.6446875 25.99702148 13.6446875 26.39648438 15.6015625 C26.52627686 16.26188477 26.65606934 16.92220703 26.78979492 17.60253906 C27.18803772 19.62773448 27.59960998 21.64986051 28.01367188 23.671875 C30 33.52884164 30 33.52884164 30 37 C29.236875 37.433125 28.47375 37.86625 27.6875 38.3125 C24.21979748 40.48989461 23.5242393 42.21105288 22 46 C21.53589875 48.78974513 21.40186636 51.55102316 21.3125 54.375 C21.27833984 55.11105469 21.24417969 55.84710938 21.20898438 56.60546875 C21.12727211 58.40313853 21.06194219 60.20154046 21 62 C18.36 62 15.72 62 13 62 C5.17156671 27.05653481 5.17156671 27.05653481 2 11.875 C1.79286377 10.88822266 1.58572754 9.90144531 1.37231445 8.88476562 C1.18757568 7.99208984 1.00283691 7.09941406 0.8125 6.1796875 C0.65394531 5.41382324 0.49539063 4.64795898 0.33203125 3.85888672 C0 2 0 2 0 0 Z " fill="#A5E5EE" transform="translate(412,209)"/>
<path d="M0 0 C0.33 0 0.66 0 1 0 C1 10.56 1 21.12 1 32 C17.83 32 34.66 32 52 32 C52 21.44 52 10.88 52 0 C55.609375 -0.020625 59.21875 -0.04125 62.9375 -0.0625 C64.07695068 -0.071604 65.21640137 -0.08070801 66.39038086 -0.09008789 C67.28120361 -0.09258545 68.17202637 -0.09508301 69.08984375 -0.09765625 C70.46450806 -0.10551147 70.46450806 -0.10551147 71.86694336 -0.11352539 C74 0 74 0 75 1 C75 11.56 75 22.12 75 33 C50.25 33 25.5 33 0 33 C0 22.11 0 11.22 0 0 Z " fill="#F15E63" transform="translate(317,53)"/>
<path d="M0 0 C0.33 0 0.66 0 1 0 C1 10.56 1 21.12 1 32 C17.83 32 34.66 32 52 32 C52 21.44 52 10.88 52 0 C59.59 0 67.18 0 75 0 C75.04587502 4.37851608 75.08570968 8.75620083 75.10986328 13.13476562 C75.11993043 14.6247032 75.13358518 16.11462097 75.15087891 17.60449219 C75.17509653 19.74419028 75.18647564 21.88362753 75.1953125 24.0234375 C75.20578613 25.31169434 75.21625977 26.59995117 75.22705078 27.92724609 C75 31 75 31 73 33 C69.98812866 33.24050903 69.98812866 33.24050903 66.07177734 33.22705078 C65.00332329 33.22748886 65.00332329 33.22748886 63.9132843 33.22793579 C61.55404566 33.22654016 59.19512111 33.21096827 56.8359375 33.1953125 C55.20211968 33.19158319 53.56829962 33.18873583 51.93447876 33.18673706 C47.63047124 33.1790941 43.32659832 33.15943999 39.02264404 33.1373291 C33.86064434 33.11329157 28.69859969 33.10409284 23.53656006 33.09242249 C15.69094638 33.0730159 7.84562812 33.03469811 0 33 C0 22.11 0 11.22 0 0 Z " fill="#8B7D8B" transform="translate(317,101)"/>
<path d="M0 0 C2 3 2 3 3.0078125 4.8671875 C5.96308103 10.17840436 9.29038049 13.69837137 15 16 C17.31 16.33 19.62 16.66 22 17 C22 27.23 22 37.46 22 48 C8.8 48 -4.4 48 -18 48 C-18 47.67 -18 47.34 -18 47 C-12.06 47 -6.12 47 0 47 C0 31.49 0 15.98 0 0 Z " fill="#F9D36B" transform="translate(467,338)"/>
<path d="M0 0 C4.95 0 9.9 0 15 0 C15 16.17 15 32.34 15 49 C10.05 49 5.1 49 0 49 C0 32.83 0 16.66 0 0 Z " fill="#FAE086" transform="translate(147,53)"/>
<path d="M0 0 C4.62 0 9.24 0 14 0 C14 16.17 14 32.34 14 49 C9.38 49 4.76 49 0 49 C0 32.83 0 16.66 0 0 Z " fill="#FFE589" transform="translate(288,53)"/>
<path d="M0 0 C1.24245483 -0.00574036 1.24245483 -0.00574036 2.51000977 -0.01159668 C4.25831317 -0.01431425 6.00665734 -0.00696381 7.75488281 0.00976562 C10.42865777 0.03117918 13.09974596 0.00996056 15.7734375 -0.015625 C17.47396425 -0.01298169 19.17448934 -0.00785665 20.875 0 C22.07201538 -0.01214539 22.07201538 -0.01214539 23.29321289 -0.02453613 C26.85747106 0.03557879 29.01490528 0.22453868 31.9375 2.34570312 C34.15959775 5.58336899 34.05253281 7.7043792 33.4375 11.53125 C30.56594202 14.62974699 28.85920405 15.47194108 24.64453125 16.06469727 C23.18001655 16.09763042 21.71485257 16.10739596 20.25 16.09765625 C19.07981323 16.10695412 19.07981323 16.10695412 17.88598633 16.11643982 C16.24203739 16.1235212 14.59801649 16.12039331 12.95410156 16.10766602 C10.44461733 16.09378936 7.93885767 16.12790103 5.4296875 16.16601562 C3.82812409 16.16696684 2.22655604 16.16510787 0.625 16.16015625 C-0.12096436 16.17341446 -0.86692871 16.18667267 -1.63549805 16.20033264 C-5.59990726 16.12977854 -7.39023619 15.66713099 -10.5390625 13.18334961 C-12.5625 10.53125 -12.5625 10.53125 -13.125 7.46875 C-11.72060044 0.13466338 -6.4982651 -0.06593394 0 0 Z " fill="#040302" transform="translate(57.5625,309.46875)"/>
<path d="M0 0 C0.80752213 -0.0004985 1.61504425 -0.00099701 2.44703674 -0.00151062 C4.1542507 0.00082892 5.86146817 0.01055044 7.56860352 0.02709961 C10.17821208 0.05066212 12.78679667 0.04766357 15.39648438 0.04101562 C17.05599566 0.04659363 18.71550265 0.05370428 20.375 0.0625 C21.15427353 0.06158859 21.93354706 0.06067719 22.73643494 0.05973816 C29.67539035 0.1502469 29.67539035 0.1502469 32.75390625 2.36328125 C34.27882623 5.41312121 33.98953173 8.00561815 33.75390625 11.36328125 C32.21127812 13.46686506 31.07282308 14.20382284 28.75390625 15.36328125 C23.67092497 15.64724668 18.58699034 15.67701006 13.49682617 15.71337891 C11.79844451 15.72992949 10.10013224 15.7572081 8.40209961 15.79541016 C5.94999162 15.85027783 3.49951478 15.87206638 1.046875 15.88671875 C0.29149948 15.90938812 -0.46387604 15.9320575 -1.24214172 15.95541382 C-5.2287598 15.93949873 -7.0610042 15.50469967 -10.2644043 13.05712891 C-12.24609375 10.36328125 -12.24609375 10.36328125 -12.24609375 6.73828125 C-10.18788319 -0.2081794 -6.70749126 -0.07906627 0 0 Z " fill="#020201" transform="translate(57.24609375,330.63671875)"/>
<path d="M0 0 C14.85 0 29.7 0 45 0 C45 10 45 10 43.00024414 13.08569336 C39.27385888 15.46331455 36.28520576 15.70710177 31.99609375 15.62890625 C30.85564354 15.63252419 30.85564354 15.63252419 29.69215393 15.63621521 C28.09102136 15.63523907 26.48985406 15.62190072 24.88891602 15.59692383 C22.44105348 15.5625499 19.99679135 15.5762885 17.54882812 15.59570312 C15.98956801 15.58880574 14.43031717 15.57913431 12.87109375 15.56640625 C12.14184189 15.57136612 11.41259003 15.57632599 10.66123962 15.58143616 C7.19240668 15.50115742 5.33397607 15.26262312 2.57055664 13.08959961 C-1.11188333 8.19017419 0 7.8480267 0 0 Z " fill="#F7787D" transform="translate(368,314)"/>
<path d="M0 0 C12.21 0 24.42 0 37 0 C37 4.95 37 9.9 37 15 C26.11 15 15.22 15 4 15 C2.68 10.05 1.36 5.1 0 0 Z " fill="#EBE3DF" transform="translate(460,401)"/>
<path d="M0 0 C12 0 12 0 15 2 C15.38818359 4.01538086 15.38818359 4.01538086 15.3984375 6.46484375 C15.40230469 7.34720703 15.40617187 8.22957031 15.41015625 9.13867188 C15.39855469 10.06228516 15.38695312 10.98589844 15.375 11.9375 C15.38660156 12.85724609 15.39820313 13.77699219 15.41015625 14.72460938 C15.40628906 15.60826172 15.40242188 16.49191406 15.3984375 17.40234375 C15.39505371 18.21179443 15.39166992 19.02124512 15.38818359 19.85522461 C15 22 15 22 12 25 C8.04 25 4.08 25 0 25 C0 16.75 0 8.5 0 0 Z " fill="#EAE1DD" transform="translate(448,260)"/>
<path d="M0 0 C7.92 0 15.84 0 24 0 C23.01 4.95 22.02 9.9 21 15 C14.07 15 7.14 15 0 15 C0 10.05 0 5.1 0 0 Z " fill="#F2ECEA" transform="translate(15,401)"/>
<path d="M0 0 C3.28544407 1.23204153 6.3828708 2.80650382 9.5 4.40625 C10.1496875 4.73560547 10.799375 5.06496094 11.46875 5.40429688 C13.06434294 6.21382565 14.65742483 7.02830042 16.25 7.84375 C16.25 9.82375 16.25 11.80375 16.25 13.84375 C15.6209375 13.90691406 14.991875 13.97007812 14.34375 14.03515625 C7.28708809 15.04476902 2.84504438 17.33410445 -1.75 22.84375 C-3.09584482 25.18198545 -3.90662009 27.26089904 -4.75 29.84375 C-5.08 29.84375 -5.41 29.84375 -5.75 29.84375 C-5.77505615 29.16272217 -5.8001123 28.48169434 -5.82592773 27.7800293 C-5.94190952 24.69691245 -6.06462616 21.61409954 -6.1875 18.53125 C-6.22681641 17.45939453 -6.26613281 16.38753906 -6.30664062 15.28320312 C-6.34853516 14.25517578 -6.39042969 13.22714844 -6.43359375 12.16796875 C-6.48858032 10.7461731 -6.48858032 10.7461731 -6.54467773 9.2956543 C-6.66430187 6.707579 -6.66430187 6.707579 -7.75 3.84375 C-2.34574468 -0.20944149 -2.34574468 -0.20944149 0 0 Z " fill="#F7D169" transform="translate(472.75,294.15625)"/>
<path d="M0 0 C5.28 0 10.56 0 16 0 C16 5.61 16 11.22 16 17 C10.72 17 5.44 17 0 17 C0 11.39 0 5.78 0 0 Z " fill="#E9D17D" transform="translate(287,117)"/>
<path d="M0 0 C4.95 0 9.9 0 15 0 C15 5.61 15 11.22 15 17 C10.05 17 5.1 17 0 17 C0 11.39 0 5.78 0 0 Z " fill="#F4DB83" transform="translate(147,117)"/>
<path d="M0 0 C0 5.94 0 11.88 0 18 C-10.06336634 18.47920792 -10.06336634 18.47920792 -13.6875 16.625 C-15.76833629 12.46332742 -15.83803363 8.54501125 -15 4 C-11.18480334 -1.34127533 -5.98594947 -0.31925064 0 0 Z " fill="#F5D4A0" transform="translate(497,322)"/>
<path d="M0 0 C4.95 0 9.9 0 15 0 C15 4.95 15 9.9 15 15 C10.05 15 5.1 15 0 15 C0 10.05 0 5.1 0 0 Z " fill="#F6DD84" transform="translate(331,149)"/>
<path d="M0 0 C4.95 0 9.9 0 15 0 C15 4.95 15 9.9 15 15 C10.05 15 5.1 15 0 15 C0 10.05 0 5.1 0 0 Z " fill="#F6DD84" transform="translate(105,149)"/>
<path d="M0 0 C2.4375 1 2.4375 1 4 3 C4.45352711 6.17468977 4.69511624 7.98984447 4 11 C1.875 13.5625 1.875 13.5625 -1 15 C-4.15548924 14.93689022 -6.13769198 14.48864121 -8.875 12.9375 C-10.71730752 9.76463704 -10.52772961 6.56774951 -10 3 C-7.82867609 -1.08719794 -4.198293 -0.44192558 0 0 Z " fill="#F0EAE8" transform="translate(415,415)"/>
<path d="M0 0 C2.4375 1.625 2.4375 1.625 4 4 C4.60605429 7.63632575 4.47161336 9.28314769 2.4375 12.375 C-0.93510779 14.62340519 -3.02512383 14.56783945 -7 14 C-9.4375 12.375 -9.4375 12.375 -11 10 C-11.60605429 6.36367425 -11.47161336 4.71685231 -9.4375 1.625 C-6.06489221 -0.62340519 -3.97487617 -0.56783945 0 0 Z " fill="#F1EBE9" transform="translate(91,415)"/>
<path d="M0 0 C4.62 0 9.24 0 14 0 C14 4.62 14 9.24 14 14 C10.7 14 7.4 14 4 14 C2.68 9.38 1.36 4.76 0 0 Z " fill="#F6F0EE" transform="translate(460,401)"/>
</svg>
